<svg xmlns="http://www.w3.org/2000/svg" viewBox="0 0 512 512" role="img" aria-labelledby="title desc">
  <title id="title">Irodori Table icon</title>
  <desc id="desc">A colorful flower-like data table mark.</desc>
  <defs>
    <linearGradient id="bg" x1="82" x2="430" y1="48" y2="464" gradientUnits="userSpaceOnUse">
      <stop offset="0" stop-color="#fffdf5"/>
      <stop offset="1" stop-color="#edf8f4"/>
    </linearGradient>
    <linearGradient id="coral" x1="200" x2="318" y1="62" y2="258" gradientUnits="userSpaceOnUse">
      <stop offset="0" stop-color="#ff6f70"/>
      <stop offset="1" stop-color="#e34366"/>
    </linearGradient>
    <linearGradient id="gold" x1="256" x2="446" y1="182" y2="310" gradientUnits="userSpaceOnUse">
      <stop offset="0" stop-color="#ffd166"/>
      <stop offset="1" stop-color="#f08a3e"/>
    </linearGradient>
    <linearGradient id="teal" x1="198" x2="314" y1="258" y2="450" gradientUnits="userSpaceOnUse">
      <stop offset="0" stop-color="#37d2a5"/>
      <stop offset="1" stop-color="#1691a8"/>
    </linearGradient>
    <linearGradient id="violet" x1="70" x2="256" y1="190" y2="322" gradientUnits="userSpaceOnUse">
      <stop offset="0" stop-color="#7c83ff"/>
      <stop offset="1" stop-color="#5c4bc4"/>
    </linearGradient>
    <filter id="soft-shadow" x="-20%" y="-20%" width="140%" height="140%" color-interpolation-filters="sRGB">
      <feDropShadow dx="0" dy="18" stdDeviation="18" flood-color="#182033" flood-opacity=".2"/>
      <feDropShadow dx="0" dy="3" stdDeviation="5" flood-color="#182033" flood-opacity=".14"/>
    </filter>
    <path id="petal" d="M256 62c43 0 73 39 58 80l-33 91c-8 23-17 32-25 32s-17-9-25-32l-33-91c-15-41 15-80 58-80Z"/>
  </defs>
  <rect x="28" y="28" width="456" height="456" rx="112" fill="url(#bg)"/>
  <rect x="28" y="28" width="456" height="456" rx="112" fill="none" stroke="#d6e4df" stroke-width="8"/>
  <g filter="url(#soft-shadow)">
    <use href="#petal" fill="url(#coral)"/>
    <use href="#petal" fill="url(#gold)" transform="rotate(90 256 256)"/>
    <use href="#petal" fill="url(#teal)" transform="rotate(180 256 256)"/>
    <use href="#petal" fill="url(#violet)" transform="rotate(270 256 256)"/>
  </g>
  <g filter="url(#soft-shadow)">
    <rect x="155" y="155" width="202" height="202" rx="46" fill="#ffffff"/>
    <rect x="155" y="155" width="202" height="202" rx="46" fill="none" stroke="#1f2937" stroke-width="18"/>
    <path d="M223 164v184M289 164v184M164 223h184M164 289h184" fill="none" stroke="#1f2937" stroke-width="14" stroke-linecap="round"/>
    <path d="M178 178h156v50H178z" fill="#f8fafc" opacity=".9"/>
    <circle cx="256" cy="256" r="20" fill="#1f2937"/>
  </g>
</svg>
